<svg width="20" height="20" viewBox="0 0 20 20" xmlns="http://www.w3.org/2000/svg" xmlns:xlink="http://www.w3.org/1999/xlink">
    <defs>
        <path d="M0 1.895C0 2.94.67 3.79 1.494 3.79c.823 0 1.493-.85 1.493-1.895S2.317 0 1.494 0C.67 0 0 .85 0 1.895z" id="jw1xavnvaa"/>
        <path d="M.009.164a1.743 1.743 0 0 0 1.617 1.132c.72 0 1.339-.453 1.603-1.099.049-.118-.096-.22-.185-.13C2.536.575 1.457 1.3.195.034A.11.11 0 0 0 .116 0 .119.119 0 0 0 .01.164z" id="e7o7rkffxc"/>
        <path d="M0 1.895C0 2.94.67 3.79 1.494 3.79c.823 0 1.493-.85 1.493-1.895S2.317 0 1.494 0C.67 0 0 .85 0 1.895z" id="790tf3lsze"/>
    </defs>
    <g fill="none" fill-rule="evenodd">
        <path d="M20 10c0 5.523-4.477 10-10 10S0 15.523 0 10 4.477 0 10 0s10 4.477 10 10" fill="#FFF"/>
        <path d="M17.2 7.704c0 3.147-3.276 5.699-7.315 5.699-4.04 0-7.314-2.552-7.314-5.699s3.275-5.698 7.314-5.698c4.04 0 7.314 2.551 7.314 5.698" fill="#EBEBEB"/>
        <path d="M20 10v7.863a.863.863 0 0 1-1.297.747l-2.879-1.672a.557.557 0 0 1-.174-.804L20 10z" fill="#FFF"/>
        <path d="M0 10v7.863a.863.863 0 0 0 1.297.747l2.879-1.672a.557.557 0 0 0 .174-.804L0 10z" fill="#FFF" opacity=".3"/>
        <path d="M17.985 9.804s-3.575-.639-4.11 3.2c0 0 2.782.773 4.11-3.2M1.785 9.804s3.574-.639 4.11 3.2c0 0-2.783.773-4.11-3.2" fill="#FFF"/>
        <g transform="translate(11.674 5.061)">
            <mask id="uonibvwueb" fill="#fff">
                <use xlink:href="#jw1xavnvaa"/>
            </mask>
            <path fill="#FFF" mask="url(#uonibvwueb)" d="M-1.157 4.947h5.3v-6.104h-5.3z"/>
        </g>
        <g transform="translate(8.185 8.115)">
            <mask id="7otoqzwj8d" fill="#fff">
                <use xlink:href="#e7o7rkffxc"/>
            </mask>
            <path fill="#654735" mask="url(#7otoqzwj8d)" d="M-1.157 2.452h5.553v-3.609h-5.553z"/>
        </g>
        <path d="m13.106 6.788.368-.328c-.122-.45-.404-.767-.733-.767-.439 0-.796.566-.796 1.263 0 .696.357 1.263.796 1.263.44 0 .797-.567.797-1.263 0-.033-.002-.065-.003-.098l-.429-.07z" fill="#000"/>
        <g transform="translate(4.847 5.061)">
            <mask id="r5widqvk0f" fill="#fff">
                <use xlink:href="#790tf3lsze"/>
            </mask>
            <path fill="#FFF" mask="url(#r5widqvk0f)" d="M-1.157 4.947h5.301v-6.104h-5.3z"/>
        </g>
        <path d="m6.28 6.788.368-.328c-.122-.45-.404-.767-.733-.767-.439 0-.796.566-.796 1.263 0 .696.357 1.263.796 1.263.44 0 .797-.567.797-1.263 0-.033-.001-.065-.003-.098l-.429-.07z" fill="#000"/>
    </g>
</svg>
